<svg version="1.1" id="Layer_1" xmlns="http://www.w3.org/2000/svg" xmlns:xlink="http://www.w3.org/1999/xlink" x="0px" y="0px"
	 width="100%" viewBox="0 0 1320 1208" enable-background="new 0 0 1320 1208" xml:space="preserve">
<path fill="#242839" opacity="1.000000" stroke="none" 
	d="
M798.000000,1209.000000 
	C532.000000,1209.000000 266.500000,1209.000000 1.000000,1209.000000 
	C1.000000,806.333313 1.000000,403.666656 1.000000,1.000000 
	C441.000000,1.000000 881.000000,1.000000 1321.000000,1.000000 
	C1321.000000,403.666656 1321.000000,806.333313 1321.000000,1209.000000 
	C1146.833374,1209.000000 972.666687,1209.000000 798.000000,1209.000000 
M748.524292,991.179443 
	C751.200623,1008.069214 751.397034,1025.867920 757.170959,1041.622437 
	C764.661316,1062.060425 776.374634,1080.987671 786.735901,1100.315674 
	C790.149780,1106.683838 796.170776,1109.730347 803.831299,1109.556519 
	C815.824036,1109.284302 827.847351,1109.104492 839.822144,1109.656372 
	C851.063171,1110.174194 861.713806,1108.111206 872.111633,1104.322266 
	C887.907288,1098.566406 900.946289,1089.252319 909.308960,1074.266724 
	C916.506836,1061.368408 920.807129,1047.487793 924.328003,1033.154053 
	C927.969238,1018.330200 933.034058,1003.847412 937.697571,989.286377 
	C940.838196,979.480042 944.858521,969.932068 947.565674,960.017395 
	C949.884216,951.526245 950.895630,942.678223 952.561462,933.570923 
	C953.065918,934.558289 953.562866,935.343323 953.887878,936.194153 
	C963.328918,960.910828 973.785156,985.300171 981.919678,1010.440552 
	C992.238586,1042.332153 1003.699585,1073.650146 1018.137085,1103.912109 
	C1022.066895,1112.148926 1027.344849,1116.653198 1036.721191,1115.500244 
	C1038.856323,1115.237427 1041.066406,1115.271729 1043.213867,1115.471191 
	C1055.816162,1116.641357 1065.046143,1111.126831 1070.735107,1100.371094 
	C1078.497437,1085.695190 1086.116821,1070.881958 1092.659912,1055.639282 
	C1099.804688,1038.994629 1105.598511,1021.772644 1112.078857,1004.839661 
	C1117.728516,990.076904 1123.661499,975.421265 1129.194336,960.615540 
	C1133.894897,948.036926 1139.175781,935.927490 1149.583618,926.789368 
	C1151.547852,925.064697 1153.071045,922.750244 1154.497925,920.516479 
	C1160.849487,910.573303 1166.798340,900.358704 1173.476685,890.643555 
	C1177.961060,884.119934 1179.650513,877.275391 1179.534302,869.515137 
	C1179.058105,837.711548 1178.740479,805.904968 1178.575562,774.098389 
	C1178.562500,771.537842 1179.653320,768.639221 1181.087524,766.461731 
	C1186.978516,757.517822 1195.187134,749.716797 1194.319092,737.664734 
	C1194.275513,737.058044 1194.688354,736.396545 1194.959351,735.792297 
	C1200.401489,723.656921 1205.894653,711.544189 1211.294678,699.390137 
	C1218.181519,683.889343 1226.071533,668.726135 1231.566772,652.742798 
	C1238.414917,632.824280 1236.145142,611.940308 1233.975708,591.375000 
	C1233.638916,588.181946 1232.001221,585.005615 1230.474731,582.077148 
	C1215.881348,554.082153 1199.037476,527.589722 1177.074097,504.713013 
	C1167.875854,495.132202 1157.349609,486.454285 1144.037720,484.256378 
	C1124.696777,481.062958 1105.084106,479.379211 1085.537476,477.601379 
	C1062.619385,475.516968 1039.659424,473.834686 1018.114685,464.798462 
	C1008.314697,460.688171 998.465820,456.618744 991.664673,447.641846 
	C984.192139,437.778687 979.654724,426.618011 975.972595,414.974945 
	C965.168457,380.810944 965.890442,345.624481 966.926941,310.458252 
	C967.033386,306.845612 968.982056,302.484100 971.519043,299.871094 
	C995.643921,275.022430 1020.858582,251.432556 1048.466919,230.321594 
	C1071.844604,212.445724 1093.988647,192.957581 1116.694458,174.202011 
	C1131.710571,161.798248 1146.836304,149.525650 1161.761719,137.013977 
	C1175.193481,125.754341 1183.561523,112.262367 1181.622192,93.638412 
	C1180.822388,85.957672 1177.886353,80.750603 1171.655762,76.352180 
	C1160.697266,68.616104 1148.427734,64.240990 1135.440918,63.180431 
	C1115.226440,61.529648 1094.865967,61.736103 1074.621582,60.360229 
	C1052.830322,58.879227 1032.854736,64.355522 1013.298096,73.311760 
	C1000.918213,78.981316 988.168579,84.021072 975.223877,88.234665 
	C959.056885,93.497147 942.890991,98.621490 927.994080,106.950371 
	C917.562256,112.782822 906.547852,117.973824 897.192627,125.250015 
	C876.086426,141.665573 858.308167,161.528748 842.381714,182.993454 
	C830.706665,198.728439 821.295654,215.621979 815.700562,234.569717 
	C806.822205,264.635895 806.826355,295.395874 807.973511,326.271973 
	C808.046814,328.243317 808.383728,330.313202 809.106750,332.135345 
	C816.710999,351.300507 823.816467,370.697662 832.321167,389.458862 
	C837.531250,400.952148 845.028015,411.740204 855.719849,418.811737 
	C865.930420,425.564972 877.162292,430.693390 889.594971,432.944763 
	C904.577820,435.657898 918.820679,440.981445 932.156433,448.347443 
	C957.497559,462.344574 982.833618,476.364014 1007.867554,490.898193 
	C1018.615906,497.138458 1028.610718,504.678131 1038.935303,511.646210 
	C1043.202148,514.525818 1044.583618,518.604187 1044.520264,523.676453 
	C1044.341309,538.007446 1045.255859,552.399231 1044.228516,566.658203 
	C1043.340454,578.985168 1040.381470,591.162842 1038.396606,603.055237 
	C1020.952637,603.915161 1004.673645,604.958069 988.377991,605.476501 
	C936.374573,607.130981 884.465576,603.418335 832.506836,602.457153 
	C822.684814,602.275330 812.829956,602.050720 803.067993,601.071655 
	C796.504333,600.413330 789.457520,599.627441 783.708252,596.743225 
	C767.970764,588.847900 752.139038,580.802246 737.569092,570.996826 
	C715.711731,556.286987 693.295349,542.713318 670.029297,530.393677 
	C661.009460,525.617554 653.768555,517.758301 651.671082,507.852661 
	C649.243103,496.386047 649.175232,484.378082 648.547974,472.580383 
	C647.222046,447.639893 646.362732,422.673889 644.927734,397.740448 
	C644.597656,392.005096 643.304810,386.156403 641.427917,380.714081 
	C637.534363,369.423920 625.044617,365.235138 615.690979,372.759613 
	C607.465759,379.376282 599.579041,386.915771 593.327942,395.367981 
	C583.767395,408.294891 575.605591,422.272339 567.094971,435.956177 
	C551.817627,460.519897 536.685059,485.174011 521.599487,509.856018 
	C519.766418,512.855042 517.638672,514.490967 514.030212,514.456360 
	C504.698853,514.366821 495.359528,514.685974 486.035095,514.424683 
	C478.523071,514.214172 471.718628,516.194214 464.726105,518.747437 
	C453.344849,522.903015 441.699860,526.452271 429.970520,529.505676 
	C418.399292,532.517944 406.265961,533.616516 394.947784,537.301147 
	C374.905853,543.825928 354.739105,550.863220 344.508820,571.423401 
	C336.742401,564.020325 328.955505,556.544434 321.110413,549.130005 
	C301.174591,530.288513 281.504974,511.151184 261.156860,492.765259 
	C247.970215,480.850250 233.872025,469.931030 220.005661,458.785309 
	C208.597900,449.615875 196.868820,440.847015 185.410400,431.739227 
	C181.263245,428.442871 177.676453,424.433899 173.483429,421.205322 
	C170.202789,418.679352 165.773849,417.156647 162.424622,420.120544 
	C160.223007,422.068878 158.571350,426.039825 158.705307,429.013489 
	C160.391586,466.446991 162.057190,503.890228 164.579025,541.273560 
	C165.799026,559.358765 169.561066,577.272705 170.775635,595.357971 
	C171.853867,611.413025 171.001816,627.597778 171.001816,643.724792 
	C157.684219,643.225281 156.424408,645.598206 156.456558,657.578186 
	C156.518707,680.744446 156.459183,703.911133 156.525864,727.077454 
	C156.535431,730.398621 156.501465,733.832397 157.280045,737.020508 
	C161.779221,755.443481 166.495529,773.813660 171.179199,792.191345 
	C175.204163,807.984375 179.370392,823.742493 183.202393,839.581848 
	C183.575775,841.125183 182.580765,843.943848 181.302979,844.799500 
	C164.589081,855.989807 147.671097,866.874451 130.888519,877.963196 
	C122.846397,883.276855 114.874268,888.714478 107.141510,894.460693 
	C105.839470,895.428223 105.918373,898.254089 105.359222,900.221375 
	C107.403442,900.020996 109.811295,900.439636 111.418587,899.495422 
	C115.125580,897.317993 118.309799,894.268860 121.945107,891.947693 
	C132.734985,885.058594 143.729370,878.487976 154.475433,871.532654 
	C165.014282,864.711548 175.346497,857.571167 186.091919,850.354187 
	C190.685669,859.557739 200.185974,861.336548 208.179108,866.029297 
	C206.602707,867.496155 205.434525,868.625183 204.221985,869.704468 
	C195.772491,877.225708 187.067596,884.479675 178.906616,892.301453 
	C158.846741,911.527527 138.915085,930.892090 119.224899,950.495239 
	C115.209053,954.493408 112.236732,959.639343 109.326828,964.576477 
	C108.627449,965.763123 109.516235,969.198975 110.692703,969.905884 
	C113.175606,971.397644 114.505653,969.321777 115.842308,967.000732 
	C118.119247,963.046875 120.649422,959.049744 123.854187,955.853943 
	C134.456070,945.281738 145.341919,934.990601 156.238190,924.718201 
	C175.236084,906.808167 194.295792,888.963257 213.449295,871.220276 
	C214.449768,870.293457 216.908798,869.836609 218.107498,870.399292 
	C230.095276,876.026611 241.960999,881.914001 252.801208,887.210205 
	C252.801208,890.382507 251.746078,894.588989 252.985565,895.435486 
	C258.094299,898.924377 258.453308,891.975281 261.606293,890.658630 
	C283.166229,899.542664 305.728455,903.135864 328.957153,902.435242 
	C341.914551,902.044434 354.163361,903.790527 365.294373,910.933167 
	C366.936981,911.987183 368.939270,912.777954 370.864105,913.041809 
	C377.915344,914.008545 384.991638,914.847534 392.082489,915.454529 
	C398.704529,916.021362 399.511230,916.610413 399.532654,923.204407 
	C399.580353,937.870789 399.521301,952.537659 399.575928,967.204041 
	C399.587067,970.196289 399.489899,973.283264 400.153107,976.162964 
	C403.624237,991.234802 406.540344,1006.499329 411.151886,1021.226440 
	C416.389984,1037.954590 419.700897,1054.666138 418.535767,1072.244263 
	C418.096527,1078.871216 418.599731,1085.566895 418.797180,1092.227417 
	C418.926849,1096.600464 421.429535,1099.205078 425.698639,1099.203613 
	C435.015564,1099.200317 444.420807,1099.529785 453.630157,1098.409546 
	C470.976166,1096.299805 488.135529,1092.265503 505.516632,1090.979492 
	C516.079346,1090.197876 521.823425,1085.764404 525.217712,1076.695679 
	C533.323669,1055.038330 541.834351,1033.515747 549.260681,1011.626282 
	C555.005798,994.692200 561.349915,978.247253 571.599426,963.430054 
	C578.248657,953.817627 581.643311,942.974060 582.743958,931.229980 
	C583.342529,924.843018 585.260681,918.536438 587.042603,912.325256 
	C587.737000,909.904907 589.692383,907.846252 591.073364,905.622864 
	C591.762573,905.729980 592.451782,905.837158 593.140991,905.944275 
	C597.443726,929.989563 602.178650,953.967529 605.937744,978.097534 
	C610.445984,1007.036255 613.631592,1036.185791 618.405457,1065.076172 
	C620.253113,1076.257812 622.990723,1087.616821 629.483826,1097.487305 
	C632.839783,1102.588867 636.958679,1105.614136 643.407043,1105.470947 
	C652.731934,1105.263794 662.067871,1105.621460 671.399231,1105.625977 
	C706.579346,1105.643066 727.516479,1087.957764 736.603577,1054.415649 
	C740.888245,1038.600342 742.333191,1022.009399 744.944763,1005.750610 
	C745.789001,1000.494385 746.250916,995.176758 747.467346,989.764771 
	C747.817871,989.936218 748.168335,990.107605 748.524292,991.179443 
z"/>
<path fill="#ab9def" opacity="1.000000" stroke="none" 
	d="
M746.887756,989.887207 
	C746.250916,995.176758 745.789001,1000.494385 744.944763,1005.750610 
	C742.333191,1022.009399 740.888245,1038.600342 736.603577,1054.415649 
	C727.516479,1087.957764 706.579346,1105.643066 671.399231,1105.625977 
	C662.067871,1105.621460 652.731934,1105.263794 643.407043,1105.470947 
	C636.958679,1105.614136 632.839783,1102.588867 629.483826,1097.487305 
	C622.990723,1087.616821 620.253113,1076.257812 618.405457,1065.076172 
	C613.631592,1036.185791 610.445984,1007.036255 605.937744,978.097534 
	C602.178650,953.967529 597.443726,929.989563 593.140991,905.944275 
	C592.451782,905.837158 591.762573,905.729980 591.073364,905.622864 
	C589.692383,907.846252 587.737000,909.904907 587.042603,912.325256 
	C585.260681,918.536438 583.342529,924.843018 582.743958,931.229980 
	C581.643311,942.974060 578.248657,953.817627 571.599426,963.430054 
	C561.349915,978.247253 555.005798,994.692200 549.260681,1011.626282 
	C541.834351,1033.515747 533.323669,1055.038330 525.217712,1076.695679 
	C521.823425,1085.764404 516.079346,1090.197876 505.516632,1090.979492 
	C488.135529,1092.265503 470.976166,1096.299805 453.630157,1098.409546 
	C444.420807,1099.529785 435.015564,1099.200317 425.698639,1099.203613 
	C421.429535,1099.205078 418.926849,1096.600464 418.797180,1092.227417 
	C418.599731,1085.566895 418.096527,1078.871216 418.535767,1072.244263 
	C419.700897,1054.666138 416.389984,1037.954590 411.151886,1021.226440 
	C406.540344,1006.499329 403.624237,991.234802 400.153107,976.162964 
	C399.489899,973.283264 399.587067,970.196289 399.575928,967.204041 
	C399.521301,952.537659 399.580353,937.870789 399.532654,923.204407 
	C399.511230,916.610413 398.704529,916.021362 392.082489,915.454529 
	C384.991638,914.847534 377.915344,914.008545 370.864105,913.041809 
	C368.939270,912.777954 366.936981,911.987183 365.294373,910.933167 
	C354.163361,903.790527 341.914551,902.044434 328.957153,902.435242 
	C305.728455,903.135864 283.166229,899.542664 261.606293,890.658630 
	C258.453308,891.975281 258.094299,898.924377 252.985565,895.435486 
	C251.746078,894.588989 252.801208,890.382507 252.801208,887.210205 
	C241.960999,881.914001 230.095276,876.026611 218.107498,870.399292 
	C216.908798,869.836609 214.449768,870.293457 213.449295,871.220276 
	C194.295792,888.963257 175.236084,906.808167 156.238190,924.718201 
	C145.341919,934.990601 134.456070,945.281738 123.854187,955.853943 
	C120.649422,959.049744 118.119247,963.046875 115.842308,967.000732 
	C114.505653,969.321777 113.175606,971.397644 110.692703,969.905884 
	C109.516235,969.198975 108.627449,965.763123 109.326828,964.576477 
	C112.236732,959.639343 115.209053,954.493408 119.224899,950.495239 
	C138.915085,930.892090 158.846741,911.527527 178.906616,892.301453 
	C187.067596,884.479675 195.772491,877.225708 204.221985,869.704468 
	C205.434525,868.625183 206.602707,867.496155 208.179108,866.029297 
	C200.185974,861.336548 190.685669,859.557739 186.091919,850.354187 
	C175.346497,857.571167 165.014282,864.711548 154.475433,871.532654 
	C143.729370,878.487976 132.734985,885.058594 121.945107,891.947693 
	C118.309799,894.268860 115.125580,897.317993 111.418587,899.495422 
	C109.811295,900.439636 107.403442,900.020996 105.359222,900.221375 
	C105.918373,898.254089 105.839470,895.428223 107.141510,894.460693 
	C114.874268,888.714478 122.846397,883.276855 130.888519,877.963196 
	C147.671097,866.874451 164.589081,855.989807 181.302979,844.799500 
	C182.580765,843.943848 183.575775,841.125183 183.202393,839.581848 
	C179.370392,823.742493 175.204163,807.984375 171.179199,792.191345 
	C166.495529,773.813660 161.779221,755.443481 157.280045,737.020508 
	C156.501465,733.832397 156.535431,730.398621 156.525864,727.077454 
	C156.459183,703.911133 156.518707,680.744446 156.456558,657.578186 
	C156.424408,645.598206 157.684219,643.225281 171.001816,643.724792 
	C171.001816,627.597778 171.853867,611.413025 170.775635,595.357971 
	C169.561066,577.272705 165.799026,559.358765 164.579025,541.273560 
	C162.057190,503.890228 160.391586,466.446991 158.705307,429.013489 
	C158.571350,426.039825 160.223007,422.068878 162.424622,420.120544 
	C165.773849,417.156647 170.202789,418.679352 173.483429,421.205322 
	C177.676453,424.433899 181.263245,428.442871 185.410400,431.739227 
	C196.868820,440.847015 208.597900,449.615875 220.005661,458.785309 
	C233.872025,469.931030 247.970215,480.850250 261.156860,492.765259 
	C281.504974,511.151184 301.174591,530.288513 321.110413,549.130005 
	C328.955505,556.544434 336.742401,564.020325 344.508820,571.423401 
	C354.739105,550.863220 374.905853,543.825928 394.947784,537.301147 
	C406.265961,533.616516 418.399292,532.517944 429.970520,529.505676 
	C441.699860,526.452271 453.344849,522.903015 464.726105,518.747437 
	C471.718628,516.194214 478.523071,514.214172 486.035095,514.424683 
	C495.359528,514.685974 504.698853,514.366821 514.030212,514.456360 
	C517.638672,514.490967 519.766418,512.855042 521.599487,509.856018 
	C536.685059,485.174011 551.817627,460.519897 567.094971,435.956177 
	C575.605591,422.272339 583.767395,408.294891 593.327942,395.367981 
	C599.579041,386.915771 607.465759,379.376282 615.690979,372.759613 
	C625.044617,365.235138 637.534363,369.423920 641.427917,380.714081 
	C643.304810,386.156403 644.597656,392.005096 644.927734,397.740448 
	C646.362732,422.673889 647.222046,447.639893 648.547974,472.580383 
	C649.175232,484.378082 649.243103,496.386047 651.671082,507.852661 
	C653.768555,517.758301 661.009460,525.617554 670.029297,530.393677 
	C693.295349,542.713318 715.711731,556.286987 737.569092,570.996826 
	C752.139038,580.802246 767.970764,588.847900 783.708252,596.743225 
	C789.457520,599.627441 796.504333,600.413330 803.067993,601.071655 
	C812.829956,602.050720 822.684814,602.275330 832.506836,602.457153 
	C884.465576,603.418335 936.374573,607.130981 988.377991,605.476501 
	C1004.673645,604.958069 1020.952637,603.915161 1038.396606,603.055237 
	C1040.381470,591.162842 1043.340454,578.985168 1044.228516,566.658203 
	C1045.255859,552.399231 1044.341309,538.007446 1044.520264,523.676453 
	C1044.583618,518.604187 1043.202148,514.525818 1038.935303,511.646210 
	C1028.610718,504.678131 1018.615906,497.138458 1007.867554,490.898193 
	C982.833618,476.364014 957.497559,462.344574 932.156433,448.347443 
	C918.820679,440.981445 904.577820,435.657898 889.594971,432.944763 
	C877.162292,430.693390 865.930420,425.564972 855.719849,418.811737 
	C845.028015,411.740204 837.531250,400.952148 832.321167,389.458862 
	C823.816467,370.697662 816.710999,351.300507 809.106750,332.135345 
	C808.383728,330.313202 808.046814,328.243317 807.973511,326.271973 
	C806.826355,295.395874 806.822205,264.635895 815.700562,234.569717 
	C821.295654,215.621979 830.706665,198.728439 842.381714,182.993454 
	C858.308167,161.528748 876.086426,141.665573 897.192627,125.250015 
	C906.547852,117.973824 917.562256,112.782822 927.994080,106.950371 
	C942.890991,98.621490 959.056885,93.497147 975.223877,88.234665 
	C988.168579,84.021072 1000.918213,78.981316 1013.298096,73.311760 
	C1032.854736,64.355522 1052.830322,58.879227 1074.621582,60.360229 
	C1094.865967,61.736103 1115.226440,61.529648 1135.440918,63.180431 
	C1148.427734,64.240990 1160.697266,68.616104 1171.655762,76.352180 
	C1177.886353,80.750603 1180.822388,85.957672 1181.622192,93.638412 
	C1183.561523,112.262367 1175.193481,125.754341 1161.761719,137.013977 
	C1146.836304,149.525650 1131.710571,161.798248 1116.694458,174.202011 
	C1093.988647,192.957581 1071.844604,212.445724 1048.466919,230.321594 
	C1020.858582,251.432556 995.643921,275.022430 971.519043,299.871094 
	C968.982056,302.484100 967.033386,306.845612 966.926941,310.458252 
	C965.890442,345.624481 965.168457,380.810944 975.972595,414.974945 
	C979.654724,426.618011 984.192139,437.778687 991.664673,447.641846 
	C998.465820,456.618744 1008.314697,460.688171 1018.114685,464.798462 
	C1039.659424,473.834686 1062.619385,475.516968 1085.537476,477.601379 
	C1105.084106,479.379211 1124.696777,481.062958 1144.037720,484.256378 
	C1157.349609,486.454285 1167.875854,495.132202 1177.074097,504.713013 
	C1199.037476,527.589722 1215.881348,554.082153 1230.474731,582.077148 
	C1232.001221,585.005615 1233.638916,588.181946 1233.975708,591.375000 
	C1236.145142,611.940308 1238.414917,632.824280 1231.566772,652.742798 
	C1226.071533,668.726135 1218.181519,683.889343 1211.294678,699.390137 
	C1205.894653,711.544189 1200.401489,723.656921 1194.959351,735.792297 
	C1194.688354,736.396545 1194.275513,737.058044 1194.319092,737.664734 
	C1195.187134,749.716797 1186.978516,757.517822 1181.087524,766.461731 
	C1179.653320,768.639221 1178.562500,771.537842 1178.575562,774.098389 
	C1178.740479,805.904968 1179.058105,837.711548 1179.534302,869.515137 
	C1179.650513,877.275391 1177.961060,884.119934 1173.476685,890.643555 
	C1166.798340,900.358704 1160.849487,910.573303 1154.497925,920.516479 
	C1153.071045,922.750244 1151.547852,925.064697 1149.583618,926.789368 
	C1139.175781,935.927490 1133.894897,948.036926 1129.194336,960.615540 
	C1123.661499,975.421265 1117.728516,990.076904 1112.078857,1004.839661 
	C1105.598511,1021.772644 1099.804688,1038.994629 1092.659912,1055.639282 
	C1086.116821,1070.881958 1078.497437,1085.695190 1070.735107,1100.371094 
	C1065.046143,1111.126831 1055.816162,1116.641357 1043.213867,1115.471191 
	C1041.066406,1115.271729 1038.856323,1115.237427 1036.721191,1115.500244 
	C1027.344849,1116.653198 1022.066895,1112.148926 1018.137085,1103.912109 
	C1003.699585,1073.650146 992.238586,1042.332153 981.919678,1010.440552 
	C973.785156,985.300171 963.328918,960.910828 953.887878,936.194153 
	C953.562866,935.343323 953.065918,934.558289 952.561462,933.570923 
	C950.895630,942.678223 949.884216,951.526245 947.565674,960.017395 
	C944.858521,969.932068 940.838196,979.480042 937.697571,989.286377 
	C933.034058,1003.847412 927.969238,1018.330200 924.328003,1033.154053 
	C920.807129,1047.487793 916.506836,1061.368408 909.308960,1074.266724 
	C900.946289,1089.252319 887.907288,1098.566406 872.111633,1104.322266 
	C861.713806,1108.111206 851.063171,1110.174194 839.822144,1109.656372 
	C827.847351,1109.104492 815.824036,1109.284302 803.831299,1109.556519 
	C796.170776,1109.730347 790.149780,1106.683838 786.735901,1100.315674 
	C776.374634,1080.987671 764.661316,1062.060425 757.170959,1041.622437 
	C751.397034,1025.867920 751.200623,1008.069214 748.695801,990.270630 
	C748.867249,983.622620 748.867249,977.883484 748.867249,972.144287 
	C748.527405,972.140442 748.187561,972.136597 747.847778,972.132751 
	C747.527771,978.050903 747.207764,983.969055 746.887756,989.887207 
M973.299866,967.968689 
	C979.181030,983.527832 985.921326,998.825500 990.754028,1014.703735 
	C999.258606,1042.646240 1010.292297,1069.500488 1022.029175,1096.181152 
	C1026.188843,1105.636841 1031.442261,1109.095703 1041.865601,1108.878784 
	C1053.048950,1108.646118 1060.905518,1104.922852 1065.819336,1095.218750 
	C1072.422485,1082.178589 1079.314209,1069.231079 1084.963623,1055.774414 
	C1092.815796,1037.070557 1099.608643,1017.922729 1106.897339,998.981262 
	C1112.275513,985.004578 1117.918457,971.126282 1123.079834,957.070557 
	C1127.898804,943.947327 1133.706665,931.571533 1144.455322,922.088257 
	C1146.284180,920.474792 1147.615356,918.232666 1148.953735,916.138672 
	C1155.578247,905.775085 1162.388428,895.515015 1168.561523,884.886597 
	C1170.707520,881.191833 1172.225830,876.561340 1172.298584,872.328491 
	C1172.702393,848.836121 1172.683838,825.334045 1172.557007,801.836670 
	C1172.519775,794.943848 1171.656738,788.055420 1171.227295,781.947327 
	C1168.796387,781.112976 1165.558228,780.763550 1165.342773,779.763184 
	C1164.940552,777.895630 1166.095947,775.563293 1166.962891,773.581665 
	C1168.318604,770.482300 1171.194824,767.553162 1171.293701,764.483276 
	C1171.754639,750.166260 1171.614746,735.823486 1171.381836,721.494995 
	C1171.323364,717.898193 1170.629272,714.130859 1169.366089,710.765137 
	C1163.117188,694.115173 1157.019775,677.381958 1149.930176,661.086670 
	C1147.024414,654.407715 1142.463135,648.081848 1137.407837,642.785828 
	C1128.346313,633.292786 1118.384277,624.653809 1108.709595,615.754578 
	C1104.781494,612.141235 1100.202637,610.348694 1094.635986,610.424683 
	C1079.139526,610.636230 1063.636597,610.364624 1048.139282,610.541992 
	C1045.786865,610.568848 1043.484741,612.119446 1041.092651,612.679443 
	C1039.777954,612.987305 1038.268555,612.936218 1036.944458,612.627930 
	C1034.552124,612.070801 1032.223022,610.539856 1029.885132,610.575378 
	C1020.564575,610.716675 1011.252075,611.629395 1001.934082,611.670349 
	C966.957397,611.824097 931.977539,611.981750 897.003418,611.651794 
	C881.028809,611.501099 865.069580,610.090820 849.094543,609.486511 
	C833.948425,608.913513 818.761292,609.081421 803.650330,608.062622 
	C796.104675,607.553894 787.963867,606.574890 781.355835,603.276794 
	C764.430908,594.829529 747.649048,585.824280 731.852173,575.454529 
	C710.680115,561.556091 689.132385,548.482727 666.756531,536.613892 
	C655.981201,530.898315 647.570312,521.604614 644.857849,509.440033 
	C642.521667,498.963135 642.133240,487.974762 641.652832,477.178314 
	C640.830994,458.707886 641.018921,440.188019 639.992493,421.732849 
	C639.319397,409.629181 637.762207,397.513336 635.650269,385.571045 
	C634.044739,376.491852 625.720093,373.112579 619.049255,378.873444 
	C611.547852,385.351624 604.257019,392.452057 598.451416,400.429352 
	C589.075073,413.313019 580.819153,427.030090 572.393799,440.583984 
	C557.383423,464.731018 542.546021,488.986298 527.765076,513.274658 
	C524.656616,518.382507 520.781982,521.498901 514.525513,521.427795 
	C504.362244,521.312439 494.181122,521.153687 484.037354,521.637878 
	C479.170441,521.870178 474.280518,523.220703 469.559570,524.605286 
	C456.490601,528.438293 443.603821,532.923706 430.457458,536.452515 
	C418.271057,539.723694 405.448883,540.971008 393.613647,545.124207 
	C376.318726,551.193298 358.351166,557.079956 350.104462,576.408691 
	C348.099091,581.108887 343.156921,581.291382 339.787109,577.853027 
	C330.014099,567.881348 320.436951,557.709351 310.443024,547.964539 
	C297.457611,535.302795 284.479675,522.597473 270.888611,510.601898 
	C253.685593,495.418335 235.965759,480.813049 218.287277,466.177673 
	C203.696075,454.098175 188.858734,442.315338 174.084122,430.458801 
	C171.754440,428.589172 169.178940,427.025909 166.003815,424.827026 
	C165.737183,427.528961 165.436600,428.841125 165.505051,430.133789 
	C167.468918,467.221832 169.161865,504.328400 171.619247,541.384155 
	C172.576035,555.811890 176.440491,570.085205 176.923676,584.497803 
	C177.882980,613.112854 177.474731,641.775879 177.383286,670.418335 
	C177.377930,672.092834 175.352615,674.962036 173.938690,675.184326 
	C170.864563,675.667419 170.585678,672.882812 170.607712,670.356445 
	C170.666824,663.579651 170.627884,656.801941 170.627884,649.954041 
	C168.497681,650.309570 166.256439,650.683594 163.466141,651.149292 
	C163.466141,659.016785 163.343964,666.649231 163.488037,674.276611 
	C164.014664,702.156555 160.946548,730.253845 168.904495,757.679871 
	C173.542038,773.662537 177.803970,789.754395 182.209259,805.804138 
	C185.092987,816.310425 187.930786,826.829468 190.869919,837.639832 
	C191.607697,837.161133 192.419968,836.676575 193.187714,836.129517 
	C203.215759,828.983948 213.194641,821.768250 223.284790,814.711670 
	C226.686859,812.332336 230.235687,810.062866 233.993362,808.347656 
	C235.269318,807.765198 237.392899,809.039612 239.129166,809.465515 
	C238.567429,811.013306 238.183182,812.663452 237.373550,814.068359 
	C236.928955,814.839905 235.758514,815.184937 234.930832,815.745117 
	C224.182541,823.019775 213.385452,830.224243 202.718628,837.616577 
	C198.944519,840.232056 195.489716,843.308167 191.685455,846.336243 
	C192.869400,847.963928 193.480194,849.601318 194.647217,850.274719 
	C200.803040,853.827087 207.074295,857.184387 213.386856,860.452148 
	C213.983353,860.760925 215.383057,860.237976 216.008499,859.663940 
	C226.774307,849.782532 237.710892,840.067749 248.071640,829.774536 
	C251.894867,825.976196 254.133743,820.626587 257.512848,816.311584 
	C258.544434,814.994263 260.968750,814.767700 262.755219,814.041626 
	C262.992004,815.928833 264.100952,818.344238 263.328308,819.620178 
	C256.853851,830.312622 249.964752,840.675659 239.898117,848.559753 
	C233.693588,853.419128 227.990280,858.918396 221.650299,864.492249 
	C234.428650,870.540466 246.409195,876.211121 258.549377,881.957336 
	C260.874542,878.598145 262.939636,875.986755 264.608978,873.143005 
	C275.938690,853.842896 292.373962,839.339783 309.479156,825.525452 
	C315.721161,820.484314 319.390839,822.152649 320.206390,830.219971 
	C320.663391,834.740540 322.696350,837.275818 326.960297,838.124268 
	C329.880859,838.705383 332.848175,839.417542 335.797455,839.430725 
	C360.796906,839.542603 385.797363,839.566406 410.796478,839.430969 
	C413.505768,839.416199 416.420227,838.666016 418.874451,837.493164 
	C425.875854,834.146851 427.986206,827.763977 428.358002,820.584473 
	C428.848480,811.112549 428.973724,801.611755 429.802124,792.171326 
	C430.245941,787.113953 434.240967,783.672668 438.277191,783.852905 
	C443.398773,784.081604 444.788483,787.746765 445.303375,792.012451 
	C446.178589,799.263550 449.661285,805.177429 454.546906,810.410889 
	C466.025299,822.706665 481.165558,828.043762 496.901611,831.124573 
	C519.139893,835.478394 541.674988,837.714600 564.452576,836.580322 
	C573.770813,836.116272 574.613281,835.531921 574.610657,826.177490 
	C574.607910,816.355042 574.107483,806.444946 575.206116,796.729431 
	C577.090759,780.064026 579.989380,763.510437 582.665405,746.942688 
	C582.894043,745.527344 584.642029,744.357361 585.684143,743.073364 
	C586.947937,744.316101 588.755920,745.343872 589.351379,746.850708 
	C590.307190,749.269531 590.049316,752.171265 591.020386,754.580261 
	C597.356750,770.298279 603.163696,786.359314 616.310669,798.133545 
	C616.433594,798.243530 616.538025,798.379028 616.632568,798.515442 
	C630.471741,818.480469 644.457031,838.347595 657.996399,858.513977 
	C660.165833,861.745300 661.177368,866.292969 661.286865,870.271667 
	C661.685608,884.760437 661.477905,899.266113 661.490417,913.765381 
	C661.492615,916.304077 661.686890,919.260132 658.117249,919.317139 
	C654.161194,919.380249 654.549194,916.192078 654.545654,913.529053 
	C654.531067,902.529053 654.110413,891.508423 654.649414,880.535156 
	C655.153687,870.267395 653.411133,861.115784 646.227234,853.323792 
	C644.229919,851.157410 643.116333,848.203369 641.370300,845.773865 
	C629.822327,829.705627 618.501770,813.461121 606.502991,797.734985 
	C600.328735,789.642761 593.500549,782.153992 590.844238,771.977234 
	C590.396362,770.261719 589.369629,768.697266 588.099182,765.962891 
	C583.341370,787.053345 580.562866,806.867676 581.407593,827.173340 
	C581.926941,839.656433 577.667114,843.281494 564.990417,843.493835 
	C544.301270,843.840271 523.829529,842.708862 503.305267,839.296753 
	C488.040283,836.758972 473.837708,832.256042 460.668152,824.584717 
	C450.468750,818.643494 443.145569,809.860779 439.488770,798.399597 
	C438.807800,796.265320 438.484039,794.017029 437.995453,791.821411 
	C436.666443,793.579529 436.175995,795.308472 436.102722,797.054932 
	C435.746674,805.539368 435.710205,814.041565 435.173035,822.512939 
	C434.201263,837.838074 422.805389,846.969788 409.368286,846.634094 
	C388.381714,846.109863 367.372009,846.531921 346.372162,846.504089 
	C341.209381,846.497253 335.973663,846.808960 330.900787,846.077393 
	C322.481720,844.863281 314.182922,842.903015 313.308746,830.658142 
	C294.837524,847.280945 276.847504,862.646118 265.613251,885.202759 
	C272.769623,887.296204 279.510803,889.616760 286.418640,891.218445 
	C302.240417,894.886963 318.316315,896.210083 334.554840,895.535034 
	C346.021332,895.058350 356.461517,898.233582 366.604706,903.563965 
	C371.468323,906.119934 377.257141,907.108459 382.746613,908.211243 
	C386.288940,908.922852 390.058044,908.423523 393.708618,908.694580 
	C403.306763,909.407288 406.453217,912.724609 406.486481,922.213806 
	C406.536682,936.546936 406.436188,950.880615 406.515411,965.213440 
	C406.535583,968.865479 406.509216,972.627502 407.329346,976.146667 
	C411.103821,992.342407 415.105591,1008.486389 419.167877,1024.613159 
	C420.548584,1030.094360 423.347961,1035.395874 423.758240,1040.909058 
	C424.843231,1055.488525 424.987427,1070.138306 425.476257,1084.761108 
	C425.557159,1087.181274 425.487671,1089.606323 425.487671,1091.621704 
	C435.228729,1091.621704 444.275452,1092.471802 453.103210,1091.443115 
	C470.947571,1089.363770 488.629852,1085.895386 506.473297,1083.805054 
	C512.012146,1083.156250 515.597107,1081.557373 517.547913,1076.477539 
	C525.355835,1056.144775 533.715759,1036.001221 540.783936,1015.414246 
	C547.006714,997.289612 552.438721,978.966797 563.611328,963.035828 
	C570.725769,952.891357 575.082092,941.796021 575.873962,929.212341 
	C576.234985,923.474792 577.735413,917.663696 579.657410,912.217102 
	C581.107544,908.107666 583.501526,904.018372 586.453979,900.824890 
	C590.972473,895.937866 597.323364,897.999023 598.980713,904.512451 
	C605.100891,928.565674 610.032043,952.871582 612.969116,977.516418 
	C616.397034,1006.279114 617.837219,1035.333374 625.085693,1063.520752 
	C627.635742,1073.437378 631.362305,1083.072266 634.919189,1092.699951 
	C636.502869,1096.986816 640.018127,1098.694458 644.847046,1098.578979 
	C654.669922,1098.343872 664.517822,1098.989990 674.333496,1098.647461 
	C696.453796,1097.875732 713.390747,1088.837036 723.963074,1068.378296 
	C731.916382,1052.987915 733.615540,1036.140015 736.256226,1019.742737 
	C740.592407,992.817078 742.640991,965.523926 745.709351,938.391968 
	C746.006775,935.762085 746.201111,932.927063 747.356567,930.650879 
	C748.235840,928.918701 750.564331,927.922180 752.248047,926.598389 
	C753.323059,928.299866 754.584351,929.917908 755.398010,931.736267 
	C755.835571,932.714050 755.519836,934.035522 755.519043,935.201904 
	C755.506165,953.201660 755.108154,971.211243 755.573608,989.198486 
	C756.105713,1009.759460 759.530762,1029.912964 767.212585,1049.114380 
	C769.617249,1055.125122 772.754395,1060.863770 775.825989,1066.582153 
	C781.020386,1076.252319 786.358276,1085.847656 791.777405,1095.394165 
	C794.631226,1100.421509 798.831970,1102.771851 804.947815,1102.569580 
	C816.101196,1102.201050 827.282471,1102.301025 838.441711,1102.597046 
	C847.677368,1102.842163 856.620361,1102.041992 865.500732,1099.175537 
	C882.671387,1093.632935 897.172363,1084.584473 904.648315,1067.631348 
	C909.781189,1055.991577 913.361511,1043.644531 917.289551,1031.501709 
	C922.095886,1016.644043 925.604736,1001.296753 931.362854,986.833313 
	C939.780273,965.690186 946.082397,944.412781 944.532654,921.383301 
	C944.343201,918.568787 944.304077,915.666565 944.800781,912.914307 
	C945.074768,911.396423 946.617310,908.963440 947.573853,908.970093 
	C949.171021,908.981140 950.928284,910.427368 952.280457,911.644592 
	C953.039734,912.328125 953.105164,913.770508 953.510925,914.860596 
	C960.012695,932.326843 966.518860,949.791443 973.299866,967.968689 
M961.690674,99.979660 
	C953.685547,103.248108 945.418213,106.000595 937.736084,109.904686 
	C925.888123,115.925911 913.492432,121.492249 903.024902,129.475143 
	C882.458984,145.159393 865.127747,164.363205 849.559448,185.042542 
	C837.172241,201.496460 827.062744,219.119720 821.594238,239.227509 
	C813.874451,267.613556 813.721741,296.529633 815.000122,325.556793 
	C815.149841,328.955414 816.433472,332.395294 817.660217,335.638733 
	C821.958557,347.002441 826.234192,358.384888 830.964783,369.571442 
	C834.321411,377.508972 837.719055,385.577576 842.345276,392.787628 
	C846.871277,399.841278 852.041809,407.125214 858.614502,412.066742 
	C867.850342,419.010498 878.633118,423.689758 890.350830,425.942841 
	C906.622559,429.071564 922.116577,434.687195 936.607544,442.804260 
	C957.510742,454.513184 978.303650,466.418884 999.205383,478.130371 
	C1014.581360,486.745667 1030.365601,494.624634 1043.766113,506.435822 
	C1049.104736,511.141205 1051.610352,516.412231 1051.503418,523.399048 
	C1051.332397,534.561768 1051.771362,545.739990 1051.375244,556.891174 
	C1051.057617,565.835693 1050.148315,574.784058 1049.000854,583.666077 
	C1048.160767,590.169067 1046.508057,596.567017 1045.124146,603.478333 
	C1047.308350,603.478333 1048.949219,603.477905 1050.590088,603.478394 
	C1065.255127,603.482300 1079.922729,603.649658 1094.584229,603.423523 
	C1102.245972,603.305359 1108.526367,605.982117 1113.989258,611.093384 
	C1123.704956,620.183716 1133.810547,628.899536 1143.001953,638.491760 
	C1148.077637,643.788818 1151.908081,650.377136 1155.766602,656.708313 
	C1158.345947,660.940491 1160.003296,665.737183 1162.045532,670.293640 
	C1172.116455,692.763123 1180.843140,715.522766 1178.537354,740.917725 
	C1178.084351,745.906433 1178.472168,750.971497 1178.472168,756.001404 
	C1183.337158,751.201965 1187.374268,746.544067 1187.232056,739.580566 
	C1187.176880,736.874268 1188.134033,733.967407 1189.278076,731.445923 
	C1196.495605,715.538147 1204.245728,699.863159 1211.127808,683.814514 
	C1217.014160,670.087646 1223.791138,656.343872 1226.813599,641.904114 
	C1229.628784,628.454895 1228.449585,614.067749 1228.121582,600.114868 
	C1227.997681,594.852295 1226.110596,589.252808 1223.690796,584.485229 
	C1209.849731,557.215088 1193.218262,531.761169 1172.036011,509.564453 
	C1163.825562,500.960785 1154.434937,493.217285 1142.414673,491.067596 
	C1128.026611,488.494507 1113.403809,487.172119 1098.850464,485.607788 
	C1088.757080,484.522888 1078.591919,484.117310 1068.489258,483.104980 
	C1044.643066,480.715454 1021.254822,476.394409 1000.338257,463.838196 
	C995.317383,460.824219 990.520081,456.882385 986.773254,452.402710 
	C974.215454,437.388733 969.224609,418.950562 964.966553,400.396057 
	C958.035828,370.195648 959.034668,339.471130 960.136841,308.839020 
	C960.304077,304.189667 963.200073,298.893280 966.382385,295.247925 
	C973.695740,286.870605 981.707153,279.048096 989.900146,271.505341 
	C1004.468689,258.093018 1019.067139,244.679001 1034.246704,231.974930 
	C1047.239380,221.101013 1061.301514,211.513931 1074.462891,200.830658 
	C1093.960571,185.004166 1113.216675,168.871735 1132.310303,152.558945 
	C1144.185669,142.413071 1155.924805,132.048355 1166.974854,121.029449 
	C1170.568726,117.445671 1172.977173,111.689308 1173.876221,106.566574 
	C1176.890259,89.393684 1174.983032,85.636536 1159.603027,77.448006 
	C1146.544067,70.495331 1131.992432,68.540077 1117.535034,67.957573 
	C1097.569458,67.153152 1077.549194,67.345177 1057.561401,67.667320 
	C1051.516968,67.764740 1045.206299,68.890465 1039.524902,70.947044 
	C1013.732117,80.283752 988.120544,90.121269 961.690674,99.979660 
z"/>
<path fill="#ab9def" opacity="1.000000" stroke="none" 
	d="
M747.177551,989.825989 
	C747.207764,983.969055 747.527771,978.050903 747.847778,972.132751 
	C748.187561,972.136597 748.527405,972.140442 748.867249,972.144287 
	C748.867249,977.883484 748.867249,983.622620 748.693054,989.820374 
	C748.168335,990.107605 747.817871,989.936218 747.177551,989.825989 
z"/>
<path fill="#242839" opacity="1.000000" stroke="none" 
	d="
M973.161987,967.612549 
	C966.518860,949.791443 960.012695,932.326843 953.510925,914.860596 
	C953.105164,913.770508 953.039734,912.328125 952.280457,911.644592 
	C950.928284,910.427368 949.171021,908.981140 947.573853,908.970093 
	C946.617310,908.963440 945.074768,911.396423 944.800781,912.914307 
	C944.304077,915.666565 944.343201,918.568787 944.532654,921.383301 
	C946.082397,944.412781 939.780273,965.690186 931.362854,986.833313 
	C925.604736,1001.296753 922.095886,1016.644043 917.289551,1031.501709 
	C913.361511,1043.644531 909.781189,1055.991577 904.648315,1067.631348 
	C897.172363,1084.584473 882.671387,1093.632935 865.500732,1099.175537 
	C856.620361,1102.041992 847.677368,1102.842163 838.441711,1102.597046 
	C827.282471,1102.301025 816.101196,1102.201050 804.947815,1102.569580 
	C798.831970,1102.771851 794.631226,1100.421509 791.777405,1095.394165 
	C786.358276,1085.847656 781.020386,1076.252319 775.825989,1066.582153 
	C772.754395,1060.863770 769.617249,1055.125122 767.212585,1049.114380 
	C759.530762,1029.912964 756.105713,1009.759460 755.573608,989.198486 
	C755.108154,971.211243 755.506165,953.201660 755.519043,935.201904 
	C755.519836,934.035522 755.835571,932.714050 755.398010,931.736267 
	C754.584351,929.917908 753.323059,928.299866 752.248047,926.598389 
	C750.564331,927.922180 748.235840,928.918701 747.356567,930.650879 
	C746.201111,932.927063 746.006775,935.762085 745.709351,938.391968 
	C742.640991,965.523926 740.592407,992.817078 736.256226,1019.742737 
	C733.615540,1036.140015 731.916382,1052.987915 723.963074,1068.378296 
	C713.390747,1088.837036 696.453796,1097.875732 674.333496,1098.647461 
	C664.517822,1098.989990 654.669922,1098.343872 644.847046,1098.578979 
	C640.018127,1098.694458 636.502869,1096.986816 634.919189,1092.699951 
	C631.362305,1083.072266 627.635742,1073.437378 625.085693,1063.520752 
	C617.837219,1035.333374 616.397034,1006.279114 612.969116,977.516418 
	C610.032043,952.871582 605.100891,928.565674 598.980713,904.512451 
	C597.323364,897.999023 590.972473,895.937866 586.453979,900.824890 
	C583.501526,904.018372 581.107544,908.107666 579.657410,912.217102 
	C577.735413,917.663696 576.234985,923.474792 575.873962,929.212341 
	C575.082092,941.796021 570.725769,952.891357 563.611328,963.035828 
	C552.438721,978.966797 547.006714,997.289612 540.783936,1015.414246 
	C533.715759,1036.001221 525.355835,1056.144775 517.547913,1076.477539 
	C515.597107,1081.557373 512.012146,1083.156250 506.473297,1083.805054 
	C488.629852,1085.895386 470.947571,1089.363770 453.103210,1091.443115 
	C444.275452,1092.471802 435.228729,1091.621704 425.487671,1091.621704 
	C425.487671,1089.606323 425.557159,1087.181274 425.476257,1084.761108 
	C424.987427,1070.138306 424.843231,1055.488525 423.758240,1040.909058 
	C423.347961,1035.395874 420.548584,1030.094360 419.167877,1024.613159 
	C415.105591,1008.486389 411.103821,992.342407 407.329346,976.146667 
	C406.509216,972.627502 406.535583,968.865479 406.515411,965.213440 
	C406.436188,950.880615 406.536682,936.546936 406.486481,922.213806 
	C406.453217,912.724609 403.306763,909.407288 393.708618,908.694580 
	C390.058044,908.423523 386.288940,908.922852 382.746613,908.211243 
	C377.257141,907.108459 371.468323,906.119934 366.604706,903.563965 
	C356.461517,898.233582 346.021332,895.058350 334.554840,895.535034 
	C318.316315,896.210083 302.240417,894.886963 286.418640,891.218445 
	C279.510803,889.616760 272.769623,887.296204 265.613251,885.202759 
	C276.847504,862.646118 294.837524,847.280945 313.308746,830.658142 
	C314.182922,842.903015 322.481720,844.863281 330.900787,846.077393 
	C335.973663,846.808960 341.209381,846.497253 346.372162,846.504089 
	C367.372009,846.531921 388.381714,846.109863 409.368286,846.634094 
	C422.805389,846.969788 434.201263,837.838074 435.173035,822.512939 
	C435.710205,814.041565 435.746674,805.539368 436.102722,797.054932 
	C436.175995,795.308472 436.666443,793.579529 437.995453,791.821411 
	C438.484039,794.017029 438.807800,796.265320 439.488770,798.399597 
	C443.145569,809.860779 450.468750,818.643494 460.668152,824.584717 
	C473.837708,832.256042 488.040283,836.758972 503.305267,839.296753 
	C523.829529,842.708862 544.301270,843.840271 564.990417,843.493835 
	C577.667114,843.281494 581.926941,839.656433 581.407593,827.173340 
	C580.562866,806.867676 583.341370,787.053345 588.099182,765.962891 
	C589.369629,768.697266 590.396362,770.261719 590.844238,771.977234 
	C593.500549,782.153992 600.328735,789.642761 606.502991,797.734985 
	C618.501770,813.461121 629.822327,829.705627 641.370300,845.773865 
	C643.116333,848.203369 644.229919,851.157410 646.227234,853.323792 
	C653.411133,861.115784 655.153687,870.267395 654.649414,880.535156 
	C654.110413,891.508423 654.531067,902.529053 654.545654,913.529053 
	C654.549194,916.192078 654.161194,919.380249 658.117249,919.317139 
	C661.686890,919.260132 661.492615,916.304077 661.490417,913.765381 
	C661.477905,899.266113 661.685608,884.760437 661.286865,870.271667 
	C661.177368,866.292969 660.165833,861.745300 657.996399,858.513977 
	C644.457031,838.347595 630.471741,818.480469 616.632568,798.515442 
	C616.538025,798.379028 616.433594,798.243530 616.310669,798.133545 
	C603.163696,786.359314 597.356750,770.298279 591.020386,754.580261 
	C590.049316,752.171265 590.307190,749.269531 589.351379,746.850708 
	C588.755920,745.343872 586.947937,744.316101 585.684143,743.073364 
	C584.642029,744.357361 582.894043,745.527344 582.665405,746.942688 
	C579.989380,763.510437 577.090759,780.064026 575.206116,796.729431 
	C574.107483,806.444946 574.607910,816.355042 574.610657,826.177490 
	C574.613281,835.531921 573.770813,836.116272 564.452576,836.580322 
	C541.674988,837.714600 519.139893,835.478394 496.901611,831.124573 
	C481.165558,828.043762 466.025299,822.706665 454.546906,810.410889 
	C449.661285,805.177429 446.178589,799.263550 445.303375,792.012451 
	C444.788483,787.746765 443.398773,784.081604 438.277191,783.852905 
	C434.240967,783.672668 430.245941,787.113953 429.802124,792.171326 
	C428.973724,801.611755 428.848480,811.112549 428.358002,820.584473 
	C427.986206,827.763977 425.875854,834.146851 418.874451,837.493164 
	C416.420227,838.666016 413.505768,839.416199 410.796478,839.430969 
	C385.797363,839.566406 360.796906,839.542603 335.797455,839.430725 
	C332.848175,839.417542 329.880859,838.705383 326.960297,838.124268 
	C322.696350,837.275818 320.663391,834.740540 320.206390,830.219971 
	C319.390839,822.152649 315.721161,820.484314 309.479156,825.525452 
	C292.373962,839.339783 275.938690,853.842896 264.608978,873.143005 
	C262.939636,875.986755 260.874542,878.598145 258.549377,881.957336 
	C246.409195,876.211121 234.428650,870.540466 221.650299,864.492249 
	C227.990280,858.918396 233.693588,853.419128 239.898117,848.559753 
	C249.964752,840.675659 256.853851,830.312622 263.328308,819.620178 
	C264.100952,818.344238 262.992004,815.928833 262.755249,814.041626 
	C260.968750,814.767700 258.544434,814.994263 257.512848,816.311584 
	C254.133743,820.626587 251.894867,825.976196 248.071640,829.774536 
	C237.710892,840.067749 226.774307,849.782532 216.008499,859.663940 
	C215.383057,860.237976 213.983353,860.760925 213.386856,860.452148 
	C207.074295,857.184387 200.803040,853.827087 194.647217,850.274719 
	C193.480194,849.601318 192.869400,847.963928 191.685455,846.336243 
	C195.489716,843.308167 198.944519,840.232056 202.718628,837.616577 
	C213.385452,830.224243 224.182541,823.019775 234.930832,815.745117 
	C235.758514,815.184937 236.928955,814.839905 237.373550,814.068359 
	C238.183182,812.663452 238.567429,811.013306 239.129150,809.465515 
	C237.392899,809.039612 235.269318,807.765198 233.993362,808.347656 
	C230.235687,810.062866 226.686859,812.332336 223.284790,814.711670 
	C213.194641,821.768250 203.215759,828.983948 193.187714,836.129517 
	C192.419968,836.676575 191.607697,837.161133 190.869919,837.639832 
	C187.930786,826.829468 185.092987,816.310425 182.209259,805.804138 
	C177.803970,789.754395 173.542038,773.662537 168.904495,757.679871 
	C160.946548,730.253845 164.014664,702.156555 163.488037,674.276611 
	C163.343964,666.649231 163.466141,659.016785 163.466141,651.149292 
	C166.256439,650.683594 168.497681,650.309570 170.627884,649.954041 
	C170.627884,656.801941 170.666824,663.579651 170.607712,670.356445 
	C170.585678,672.882812 170.864563,675.667419 173.938690,675.184326 
	C175.352615,674.962036 177.377930,672.092834 177.383286,670.418335 
	C177.474731,641.775879 177.882980,613.112854 176.923676,584.497803 
	C176.440491,570.085205 172.576035,555.811890 171.619247,541.384155 
	C169.161865,504.328400 167.468918,467.221832 165.505051,430.133789 
	C165.436600,428.841125 165.737183,427.528961 166.003815,424.827026 
	C169.178940,427.025909 171.754440,428.589172 174.084122,430.458801 
	C188.858734,442.315338 203.696075,454.098175 218.287277,466.177673 
	C235.965759,480.813049 253.685593,495.418335 270.888611,510.601898 
	C284.479675,522.597473 297.457611,535.302795 310.443024,547.964539 
	C320.436951,557.709351 330.014099,567.881348 339.787109,577.853027 
	C343.156921,581.291382 348.099091,581.108887 350.104462,576.408691 
	C358.351166,557.079956 376.318726,551.193298 393.613647,545.124207 
	C405.448883,540.971008 418.271057,539.723694 430.457458,536.452515 
	C443.603821,532.923706 456.490601,528.438293 469.559570,524.605286 
	C474.280518,523.220703 479.170441,521.870178 484.037354,521.637878 
	C494.181122,521.153687 504.362244,521.312439 514.525513,521.427795 
	C520.781982,521.498901 524.656616,518.382507 527.765076,513.274658 
	C542.546021,488.986298 557.383423,464.731018 572.393799,440.583984 
	C580.819153,427.030090 589.075073,413.313019 598.451416,400.429352 
	C604.257019,392.452057 611.547852,385.351624 619.049255,378.873444 
	C625.720093,373.112579 634.044739,376.491852 635.650269,385.571045 
	C637.762207,397.513336 639.319397,409.629181 639.992493,421.732849 
	C641.018921,440.188019 640.830994,458.707886 641.652832,477.178314 
	C642.133240,487.974762 642.521667,498.963135 644.857849,509.440033 
	C647.570312,521.604614 655.981201,530.898315 666.756531,536.613892 
	C689.132385,548.482727 710.680115,561.556091 731.852173,575.454529 
	C747.649048,585.824280 764.430908,594.829529 781.355835,603.276794 
	C787.963867,606.574890 796.104675,607.553894 803.650330,608.062622 
	C818.761292,609.081421 833.948425,608.913513 849.094543,609.486511 
	C865.069580,610.090820 881.028809,611.501099 897.003418,611.651794 
	C931.977539,611.981750 966.957397,611.824097 1001.934082,611.670349 
	C1011.252075,611.629395 1020.564575,610.716675 1029.885132,610.575378 
	C1032.223022,610.539856 1034.552124,612.070801 1036.944458,612.627930 
	C1038.268555,612.936218 1039.777954,612.987305 1041.092651,612.679443 
	C1043.484741,612.119446 1045.786865,610.568848 1048.139282,610.541992 
	C1063.636597,610.364624 1079.139526,610.636230 1094.635986,610.424683 
	C1100.202637,610.348694 1104.781494,612.141235 1108.709595,615.754578 
	C1118.384277,624.653809 1128.346313,633.292786 1137.407837,642.785828 
	C1142.463135,648.081848 1147.024414,654.407715 1149.930176,661.086670 
	C1157.019775,677.381958 1163.117188,694.115173 1169.366089,710.765137 
	C1170.629272,714.130859 1171.323364,717.898193 1171.381836,721.494995 
	C1171.614746,735.823486 1171.754639,750.166260 1171.293701,764.483276 
	C1171.194824,767.553162 1168.318604,770.482300 1166.962891,773.581665 
	C1166.095947,775.563293 1164.940552,777.895630 1165.342773,779.763184 
	C1165.558228,780.763550 1168.796387,781.112976 1171.227295,781.947327 
	C1171.656738,788.055420 1172.519775,794.943848 1172.557007,801.836670 
	C1172.683838,825.334045 1172.702393,848.836121 1172.298584,872.328491 
	C1172.225830,876.561340 1170.707520,881.191833 1168.561523,884.886597 
	C1162.388428,895.515015 1155.578247,905.775085 1148.953735,916.138672 
	C1147.615356,918.232666 1146.284180,920.474792 1144.455322,922.088257 
	C1133.706665,931.571533 1127.898804,943.947327 1123.079834,957.070557 
	C1117.918457,971.126282 1112.275513,985.004578 1106.897339,998.981262 
	C1099.608643,1017.922729 1092.815796,1037.070557 1084.963623,1055.774414 
	C1079.314209,1069.231079 1072.422485,1082.178589 1065.819336,1095.218750 
	C1060.905518,1104.922852 1053.048950,1108.646118 1041.865601,1108.878784 
	C1031.442261,1109.095703 1026.188843,1105.636841 1022.029175,1096.181152 
	C1010.292297,1069.500488 999.258606,1042.646240 990.754028,1014.703735 
	C985.921326,998.825500 979.181030,983.527832 973.161987,967.612549 
M320.978729,746.143311 
	C321.194977,747.279846 321.411224,748.416382 321.627472,749.552917 
	C322.004700,749.479004 322.381958,749.405151 322.759186,749.331238 
	C322.841034,747.923462 322.922882,746.515686 323.495789,744.832092 
	C323.864716,744.831543 324.233673,744.830994 325.250793,745.102600 
	C329.296387,744.936340 333.698792,745.845093 335.982574,740.937317 
	C337.046448,738.651245 336.553467,737.871460 334.312500,737.375183 
	C337.829803,729.685791 336.367432,721.717407 335.876404,712.978088 
	C339.036713,706.966919 331.948792,705.498901 331.053345,700.593933 
	C329.958832,701.975830 329.381958,702.704163 328.240570,703.290283 
	C327.767090,702.696960 327.293640,702.103577 326.919800,700.569397 
	C326.942200,694.450378 326.847504,694.388000 319.020874,695.389587 
	C319.020874,695.389587 318.912598,695.313293 319.206390,694.737244 
	C321.669159,689.169678 316.243774,691.887573 314.545593,689.526306 
	C314.278198,691.525879 314.133179,692.610413 313.130585,693.762695 
	C311.431580,693.596130 309.732574,693.429565 307.972473,692.618286 
	C307.462372,692.132446 306.952240,691.646545 306.442139,691.160706 
	C305.940399,691.854675 305.438629,692.548706 304.094452,693.516541 
	C302.328430,693.582275 300.562378,693.648010 298.856323,692.901550 
	C295.772675,688.896790 293.177460,692.030518 290.904083,693.758911 
	C288.498993,695.587524 287.814117,698.026794 291.112152,700.899231 
	C290.897247,702.929260 290.682312,704.959229 289.781433,707.007751 
	C289.330322,707.082092 288.879242,707.156433 287.809357,707.078308 
	C286.204041,706.426453 284.598724,705.774536 282.918823,704.443726 
	C281.767151,703.052368 280.739929,700.675720 278.276733,703.961792 
	C276.506897,703.337036 274.737030,702.712219 272.973389,701.347412 
	C272.519287,700.622314 272.065186,699.897156 271.611084,699.172058 
	C271.075226,699.823059 270.539368,700.474121 269.227051,701.150940 
	C263.498810,700.141113 257.770538,699.131348 251.726715,697.635986 
	C251.150436,698.073669 250.574142,698.511353 249.547806,699.458069 
	C249.146057,699.656250 248.744308,699.854431 248.096802,699.337280 
	C246.085876,698.891296 244.074966,698.445374 241.741302,697.927856 
	C240.294083,701.813293 244.072037,701.805054 246.178391,703.655701 
	C245.882172,704.142151 245.585953,704.628662 244.504517,705.067383 
	C243.472824,706.283020 242.441116,707.498596 241.409409,708.714172 
	C242.192947,709.066833 242.976486,709.419495 243.760925,710.687134 
	C243.109421,718.738159 241.873962,726.804199 242.081528,734.833008 
	C242.169846,738.249329 245.278091,741.587646 247.060684,745.537354 
	C247.335129,745.888550 247.609573,746.239746 247.884003,746.590942 
	C248.260193,746.173645 248.636368,745.756348 249.685547,745.230225 
	C250.116028,745.351196 250.546509,745.472107 251.129227,746.113953 
	C252.095200,746.010132 253.061172,745.906311 254.734665,745.530212 
	C255.477798,745.617188 256.220917,745.704163 257.002716,746.536377 
	C258.469635,747.357544 259.920776,748.854980 261.406067,748.889648 
	C270.730072,749.107727 280.061707,749.000000 289.390808,749.000000 
	C297.295624,749.000000 305.200470,749.000000 313.062805,749.000000 
	C312.620026,747.598328 312.329712,746.679260 312.833771,745.491577 
	C314.215271,745.592285 315.596771,745.693054 317.139862,746.214111 
	C317.768646,746.032349 318.397461,745.850586 319.630798,745.353821 
	C320.081757,745.371094 320.532715,745.388367 320.978729,746.143311 
M756.282166,797.469177 
	C746.882263,794.638062 737.502197,791.738892 728.077148,788.994080 
	C717.538269,785.924744 707.110901,782.063416 696.347839,780.304382 
	C687.967285,778.934692 679.980957,778.153687 673.556519,771.848083 
	C672.654663,770.962830 670.106628,771.754761 668.320618,771.770386 
	C668.612732,773.530823 668.271240,775.954468 669.303284,776.940369 
	C674.665894,782.063416 680.646362,786.119263 688.533813,786.449951 
	C692.668457,786.623230 696.976196,786.850769 700.862976,788.111023 
	C741.220520,801.195740 781.644714,814.099792 821.753906,827.914734 
	C839.935425,834.177063 858.525146,839.870850 874.891357,850.617920 
	C875.928345,851.298950 878.051392,850.326111 879.669189,850.122681 
	C879.349243,848.383728 879.628845,845.731934 878.607422,845.061096 
	C873.762573,841.879150 868.830444,838.515137 863.446106,836.520569 
	C828.042114,823.406189 792.513428,810.628479 756.282166,797.469177 
M690.895203,664.482178 
	C699.860901,654.732361 696.591064,637.000183 685.041199,630.885010 
	C674.091858,625.087891 662.370850,626.706177 650.832397,626.558838 
	C640.605652,626.428162 637.556763,629.148926 637.730713,639.496033 
	C637.829773,645.392090 636.088928,649.299744 631.541748,652.938477 
	C626.292847,657.138794 627.476318,661.521851 633.639404,664.240540 
	C635.847961,665.214722 637.899780,666.870483 639.589844,668.631042 
	C644.139587,673.370422 652.749817,672.936951 655.488220,667.456665 
	C663.537048,667.456665 671.688782,667.705200 679.812927,667.341064 
	C683.332520,667.183289 686.795532,665.762573 690.895203,664.482178 
M293.556366,560.844177 
	C290.877380,555.157837 288.347656,549.392578 285.414795,543.840332 
	C284.677856,542.445190 282.647949,541.733154 281.212219,540.707214 
	C280.393250,542.273254 278.664062,544.019958 278.932159,545.370178 
	C279.634247,548.906494 280.849579,552.453552 282.498016,555.669556 
	C288.994995,568.344910 297.240417,579.770874 307.601440,589.623840 
	C314.234894,595.932007 321.019623,602.109497 327.254028,608.795593 
	C329.961578,611.699280 331.936523,615.547302 333.395233,619.296753 
	C335.985016,625.953552 337.714813,632.944641 340.295593,639.605530 
	C340.913361,641.199890 343.462799,642.045776 345.123779,643.235901 
	C345.675232,641.261841 347.076263,639.063171 346.624329,637.354492 
	C345.054535,631.419312 342.271149,625.774231 341.014008,619.794983 
	C339.339325,611.829529 334.932861,606.096619 329.210449,600.670227 
	C316.429535,588.550659 302.956696,576.991211 293.556366,560.844177 
M569.842712,520.190796 
	C567.297913,528.088013 563.799255,535.821167 562.407715,543.916626 
	C559.547180,560.557312 557.746948,577.383789 555.751282,594.162476 
	C555.600159,595.433105 557.358521,596.930908 558.229248,598.323120 
	C559.655701,597.288147 562.137817,596.427551 562.342102,595.190613 
	C564.017517,585.046997 565.208984,574.824829 566.668640,564.643860 
	C567.794128,556.793579 568.131042,548.661316 570.510376,541.193542 
	C576.142883,523.515381 582.828857,506.174225 588.915955,488.636780 
	C589.343994,487.403564 588.729248,484.701691 587.942566,484.400940 
	C586.607666,483.890564 583.891479,484.186890 583.267212,485.137054 
	C581.193237,488.293884 579.492554,491.783569 578.194397,495.344543 
	C575.293213,503.303070 572.721252,511.381653 569.842712,520.190796 
M710.643860,761.641296 
	C709.646057,761.630066 708.419983,761.245178 707.698181,761.685974 
	C706.227234,762.584167 705.027954,763.927490 703.716797,765.087463 
	C705.081726,766.199707 706.312378,767.594727 707.857117,768.328369 
	C708.952454,768.848633 710.472046,768.498657 711.802307,768.497559 
	C739.082520,768.474792 766.362671,768.447632 793.642883,768.413513 
	C794.637146,768.412292 795.866272,768.681519 796.571167,768.207581 
	C797.674377,767.465942 799.248962,766.081726 799.123108,765.178772 
	C798.946106,763.908691 797.598206,762.468872 796.370483,761.781189 
	C795.347473,761.208191 793.776245,761.588867 792.447876,761.589600 
	C765.500366,761.605469 738.552856,761.627563 710.643860,761.641296 
M304.825623,641.593079 
	C307.049469,643.327148 309.082062,645.454651 311.562805,646.660095 
	C313.283234,647.496094 315.620758,647.062195 317.682556,647.195740 
	C317.105164,645.248108 316.729187,643.204712 315.867218,641.392395 
	C315.421478,640.455139 313.997437,640.036682 313.213043,639.198792 
	C303.719238,629.057373 288.975891,626.221313 279.953064,615.356567 
	C279.380615,614.667297 276.686798,614.685181 276.034546,615.373474 
	C275.142944,616.314392 274.481018,618.855286 275.085083,619.592896 
	C277.771393,622.872986 280.580048,626.279236 284.019714,628.667236 
	C290.522278,633.181641 297.488586,637.028015 304.825623,641.593079 
M601.323364,564.726135 
	C600.661072,574.265381 599.832642,583.799255 599.528625,593.349915 
	C599.486511,594.671814 602.037415,596.076233 603.387878,597.442444 
	C604.377014,596.148376 606.320251,594.763916 606.207520,593.574219 
	C605.094177,581.822510 606.257812,570.421326 610.096680,559.227173 
	C610.487366,558.088074 608.889282,556.267029 608.214111,554.762329 
	C606.641296,555.593872 604.471863,556.043945 603.638062,557.347961 
	C602.440247,559.221191 602.215332,561.716492 601.323364,564.726135 
M328.516968,699.411377 
	C328.516968,699.411377 328.583099,699.522583 328.516968,699.411377 
z"/>
<path fill="#242839" opacity="1.000000" stroke="none" 
	d="
M962.067261,99.879112 
	C988.120544,90.121269 1013.732117,80.283752 1039.524902,70.947044 
	C1045.206299,68.890465 1051.516968,67.764740 1057.561401,67.667320 
	C1077.549194,67.345177 1097.569458,67.153152 1117.535034,67.957573 
	C1131.992432,68.540077 1146.544067,70.495331 1159.603027,77.448006 
	C1174.983032,85.636536 1176.890259,89.393684 1173.876221,106.566574 
	C1172.977173,111.689308 1170.568726,117.445671 1166.974854,121.029449 
	C1155.924805,132.048355 1144.185669,142.413071 1132.310303,152.558945 
	C1113.216675,168.871735 1093.960571,185.004166 1074.462891,200.830658 
	C1061.301514,211.513931 1047.239380,221.101013 1034.246704,231.974930 
	C1019.067139,244.679001 1004.468689,258.093018 989.900146,271.505341 
	C981.707153,279.048096 973.695740,286.870605 966.382385,295.247925 
	C963.200073,298.893280 960.304077,304.189667 960.136841,308.839020 
	C959.034668,339.471130 958.035828,370.195648 964.966553,400.396057 
	C969.224609,418.950562 974.215454,437.388733 986.773254,452.402710 
	C990.520081,456.882385 995.317383,460.824219 1000.338257,463.838196 
	C1021.254822,476.394409 1044.643066,480.715454 1068.489258,483.104980 
	C1078.591919,484.117310 1088.757080,484.522888 1098.850464,485.607788 
	C1113.403809,487.172119 1128.026611,488.494507 1142.414673,491.067596 
	C1154.434937,493.217285 1163.825562,500.960785 1172.036011,509.564453 
	C1193.218262,531.761169 1209.849731,557.215088 1223.690796,584.485229 
	C1226.110596,589.252808 1227.997681,594.852295 1228.121582,600.114868 
	C1228.449585,614.067749 1229.628784,628.454895 1226.813599,641.904114 
	C1223.791138,656.343872 1217.014160,670.087646 1211.127808,683.814514 
	C1204.245728,699.863159 1196.495605,715.538147 1189.278076,731.445923 
	C1188.134033,733.967407 1187.176880,736.874268 1187.232056,739.580566 
	C1187.374268,746.544067 1183.337158,751.201965 1178.472168,756.001404 
	C1178.472168,750.971497 1178.084351,745.906433 1178.537354,740.917725 
	C1180.843140,715.522766 1172.116455,692.763123 1162.045532,670.293640 
	C1160.003296,665.737183 1158.345947,660.940491 1155.766602,656.708313 
	C1151.908081,650.377136 1148.077637,643.788818 1143.001953,638.491760 
	C1133.810547,628.899536 1123.704956,620.183716 1113.989258,611.093384 
	C1108.526367,605.982117 1102.245972,603.305359 1094.584229,603.423523 
	C1079.922729,603.649658 1065.255127,603.482300 1050.590088,603.478394 
	C1048.949219,603.477905 1047.308350,603.478333 1045.124146,603.478333 
	C1046.508057,596.567017 1048.160767,590.169067 1049.000854,583.666077 
	C1050.148315,574.784058 1051.057617,565.835693 1051.375244,556.891174 
	C1051.771362,545.739990 1051.332397,534.561768 1051.503418,523.399048 
	C1051.610352,516.412231 1049.104736,511.141205 1043.766113,506.435822 
	C1030.365601,494.624634 1014.581360,486.745667 999.205383,478.130371 
	C978.303650,466.418884 957.510742,454.513184 936.607544,442.804260 
	C922.116577,434.687195 906.622559,429.071564 890.350830,425.942841 
	C878.633118,423.689758 867.850342,419.010498 858.614502,412.066742 
	C852.041809,407.125214 846.871277,399.841278 842.345276,392.787628 
	C837.719055,385.577576 834.321411,377.508972 830.964783,369.571442 
	C826.234192,358.384888 821.958557,347.002441 817.660217,335.638733 
	C816.433472,332.395294 815.149841,328.955414 815.000122,325.556793 
	C813.721741,296.529633 813.874451,267.613556 821.594238,239.227509 
	C827.062744,219.119720 837.172241,201.496460 849.559448,185.042542 
	C865.127747,164.363205 882.458984,145.159393 903.024902,129.475143 
	C913.492432,121.492249 925.888123,115.925911 937.736084,109.904686 
	C945.418213,106.000595 953.685547,103.248108 962.067261,99.879112 
z"/>
<path fill="#242839" opacity="1.000000" stroke="none" 
	d="
M288.428131,707.230835 
	C288.879242,707.156433 289.330322,707.082092 290.200928,707.411011 
	C291.927979,708.992798 293.235504,710.171326 294.543060,711.349854 
	C295.537323,709.831360 296.906738,708.431946 297.435638,706.765686 
	C298.181793,704.415039 296.950897,700.968750 300.931091,700.670715 
	C308.283417,700.120178 315.196838,700.076721 321.278870,706.033569 
	C327.519043,712.145325 330.273621,718.778198 329.583893,727.394104 
	C329.009247,734.572388 326.559875,738.179504 319.434265,738.272522 
	C297.137604,738.563416 274.834839,738.476074 252.536316,738.297913 
	C251.283478,738.287842 248.906708,736.061707 248.983826,735.008301 
	C249.622040,726.289795 250.616425,717.591919 251.719116,708.915344 
	C252.178513,705.300537 254.528717,704.492615 257.908508,705.499451 
	C266.354523,708.015442 274.819366,710.478088 283.336700,712.735657 
	C284.897827,713.149475 287.373718,713.099854 288.272064,712.159973 
	C289.117584,711.275391 288.437195,708.932251 288.428131,707.230835 
z"/>
<path fill="#ab9def" opacity="1.000000" stroke="none" 
	d="
M756.653809,797.605103 
	C792.513428,810.628479 828.042114,823.406189 863.446106,836.520569 
	C868.830444,838.515137 873.762573,841.879150 878.607422,845.061096 
	C879.628845,845.731934 879.349243,848.383728 879.669189,850.122681 
	C878.051392,850.326111 875.928345,851.298950 874.891357,850.617920 
	C858.525146,839.870850 839.935425,834.177063 821.753906,827.914734 
	C781.644714,814.099792 741.220520,801.195740 700.862976,788.111023 
	C696.976196,786.850769 692.668457,786.623230 688.533813,786.449951 
	C680.646362,786.119263 674.665894,782.063416 669.303284,776.940369 
	C668.271240,775.954468 668.612732,773.530823 668.320557,771.770386 
	C670.106628,771.754761 672.654663,770.962830 673.556519,771.848083 
	C679.980957,778.153687 687.967285,778.934692 696.347839,780.304382 
	C707.110901,782.063416 717.538269,785.924744 728.077148,788.994080 
	C737.502197,791.738892 746.882263,794.638062 756.653809,797.605103 
z"/>
<path fill="#ab9def" opacity="1.000000" stroke="none" 
	d="
M288.118744,707.154541 
	C288.437195,708.932251 289.117584,711.275391 288.272064,712.159973 
	C287.373718,713.099854 284.897827,713.149475 283.336700,712.735657 
	C274.819366,710.478088 266.354523,708.015442 257.908508,705.499451 
	C254.528717,704.492615 252.178513,705.300537 251.719116,708.915344 
	C250.616425,717.591919 249.622040,726.289795 248.983826,735.008301 
	C248.906708,736.061707 251.283478,738.287842 252.536316,738.297913 
	C274.834839,738.476074 297.137604,738.563416 319.434265,738.272522 
	C326.559875,738.179504 329.009247,734.572388 329.583893,727.394104 
	C330.273621,718.778198 327.519043,712.145325 321.278870,706.033569 
	C315.196838,700.076721 308.283417,700.120178 300.931091,700.670715 
	C296.950897,700.968750 298.181793,704.415039 297.435638,706.765686 
	C296.906738,708.431946 295.537323,709.831360 294.543060,711.349854 
	C293.235504,710.171326 291.927979,708.992798 290.543915,707.401733 
	C290.682312,704.959229 290.897247,702.929260 291.344055,700.238953 
	C293.982788,697.623718 296.389587,695.668762 298.796387,693.713745 
	C300.562378,693.648010 302.328430,693.582275 304.800995,693.534790 
	C306.349548,693.456360 307.191559,693.359741 308.033569,693.263062 
	C309.732574,693.429565 311.431580,693.596130 313.879578,693.923340 
	C316.056549,694.493713 317.484589,694.903503 318.912598,695.313232 
	C318.912598,695.313293 319.020874,695.389587 319.294800,695.699951 
	C321.985870,697.843567 324.403046,699.676941 326.820190,701.510254 
	C327.293640,702.103577 327.767090,702.696960 328.604919,703.676941 
	C331.190826,707.305664 333.412415,710.547791 335.634003,713.789856 
	C336.367432,721.717407 337.829803,729.685791 333.956543,737.916443 
	C330.601227,740.581909 327.601898,742.706177 324.602600,744.830444 
	C324.233673,744.830994 323.864716,744.831543 322.903259,744.910950 
	C321.868347,745.128418 321.426025,745.266968 320.983673,745.405579 
	C320.532715,745.388367 320.081757,745.371094 318.988434,745.391724 
	C317.890137,745.550964 317.434204,745.672363 316.978271,745.793762 
	C315.596771,745.693054 314.215271,745.592285 311.988708,745.471130 
	C293.083771,745.564148 275.023895,745.677673 256.964050,745.791138 
	C256.220917,745.704163 255.477798,745.617188 254.020874,745.508484 
	C252.530380,745.522217 251.753693,745.557617 250.976990,745.593018 
	C250.546509,745.472107 250.116028,745.351196 249.036621,745.135376 
	C247.929779,745.014160 247.471863,744.987793 247.013947,744.961426 
	C245.278091,741.587646 242.169846,738.249329 242.081528,734.833008 
	C241.873962,726.804199 243.109421,718.738159 243.949005,709.993530 
	C244.521301,707.904968 244.905518,706.510071 245.289734,705.115112 
	C245.585953,704.628662 245.882172,704.142151 246.428558,703.246338 
	C247.233353,701.908813 247.787949,700.980713 248.342560,700.052612 
	C248.744308,699.854431 249.146057,699.656250 250.059631,699.215027 
	C251.061737,698.688477 251.552002,698.404968 252.042297,698.121460 
	C257.770538,699.131348 263.498810,700.141113 269.832458,701.382568 
	C271.280975,701.771912 272.124084,701.929688 272.967194,702.087463 
	C274.737030,702.712219 276.506897,703.337036 278.906311,704.191162 
	C280.688385,704.654541 281.840912,704.888550 282.993408,705.122620 
	C284.598724,705.774536 286.204041,706.426453 288.118744,707.154541 
z"/>
<path fill="#ab9def" opacity="1.000000" stroke="none" 
	d="
M690.589722,664.698853 
	C686.795532,665.762573 683.332520,667.183289 679.812927,667.341064 
	C671.688782,667.705200 663.537048,667.456665 655.488220,667.456665 
	C652.749817,672.936951 644.139587,673.370422 639.589844,668.631042 
	C637.899780,666.870483 635.847961,665.214722 633.639404,664.240540 
	C627.476318,661.521851 626.292847,657.138794 631.541748,652.938477 
	C636.088928,649.299744 637.829773,645.392090 637.730713,639.496033 
	C637.556763,629.148926 640.605652,626.428162 650.832397,626.558838 
	C662.370850,626.706177 674.091858,625.087891 685.041199,630.885010 
	C696.591064,637.000183 699.860901,654.732361 690.589722,664.698853 
M688.585449,648.639709 
	C689.321594,642.429688 686.339783,638.956055 680.760925,636.487610 
	C669.870667,631.669006 658.532715,633.869385 647.348267,633.679504 
	C646.539490,633.665771 645.008667,635.261719 644.988037,636.136963 
	C644.802429,644.018433 644.879517,651.906128 644.879517,660.376770 
	C657.711609,660.376770 670.293518,660.453796 682.873291,660.323608 
	C686.095154,660.290222 688.072937,658.363403 688.274658,654.967529 
	C688.382935,653.145630 688.478577,651.322937 688.585449,648.639709 
z"/>
<path fill="#ab9def" opacity="1.000000" stroke="none" 
	d="
M293.756958,561.147156 
	C302.956696,576.991211 316.429535,588.550659 329.210449,600.670227 
	C334.932861,606.096619 339.339325,611.829529 341.014008,619.794983 
	C342.271149,625.774231 345.054535,631.419312 346.624329,637.354492 
	C347.076263,639.063171 345.675232,641.261841 345.123779,643.235901 
	C343.462799,642.045776 340.913361,641.199890 340.295593,639.605530 
	C337.714813,632.944641 335.985016,625.953552 333.395233,619.296753 
	C331.936523,615.547302 329.961578,611.699280 327.254028,608.795593 
	C321.019623,602.109497 314.234894,595.932007 307.601440,589.623840 
	C297.240417,579.770874 288.994995,568.344910 282.498016,555.669556 
	C280.849579,552.453552 279.634247,548.906494 278.932159,545.370178 
	C278.664062,544.019958 280.393250,542.273254 281.212219,540.707214 
	C282.647949,541.733154 284.677856,542.445190 285.414795,543.840332 
	C288.347656,549.392578 290.877380,555.157837 293.756958,561.147156 
z"/>
<path fill="#ab9def" opacity="1.000000" stroke="none" 
	d="
M569.928955,519.801025 
	C572.721252,511.381653 575.293213,503.303070 578.194397,495.344543 
	C579.492554,491.783569 581.193237,488.293884 583.267212,485.137054 
	C583.891479,484.186890 586.607666,483.890564 587.942566,484.400940 
	C588.729248,484.701691 589.343994,487.403564 588.915955,488.636780 
	C582.828857,506.174225 576.142883,523.515381 570.510376,541.193542 
	C568.131042,548.661316 567.794128,556.793579 566.668640,564.643860 
	C565.208984,574.824829 564.017517,585.046997 562.342102,595.190613 
	C562.137817,596.427551 559.655701,597.288147 558.229248,598.323120 
	C557.358521,596.930908 555.600159,595.433105 555.751282,594.162476 
	C557.746948,577.383789 559.547180,560.557312 562.407715,543.916626 
	C563.799255,535.821167 567.297913,528.088013 569.928955,519.801025 
z"/>
<path fill="#ab9def" opacity="1.000000" stroke="none" 
	d="
M711.124634,761.644836 
	C738.552856,761.627563 765.500366,761.605469 792.447876,761.589600 
	C793.776245,761.588867 795.347473,761.208191 796.370483,761.781189 
	C797.598206,762.468872 798.946106,763.908691 799.123108,765.178772 
	C799.248962,766.081726 797.674377,767.465942 796.571167,768.207581 
	C795.866272,768.681519 794.637146,768.412292 793.642883,768.413513 
	C766.362671,768.447632 739.082520,768.474792 711.802307,768.497559 
	C710.472046,768.498657 708.952454,768.848633 707.857117,768.328369 
	C706.312378,767.594727 705.081726,766.199707 703.716797,765.087402 
	C705.027954,763.927490 706.227234,762.584167 707.698181,761.685974 
	C708.419983,761.245178 709.646057,761.630066 711.124634,761.644836 
z"/>
<path fill="#ab9def" opacity="1.000000" stroke="none" 
	d="
M304.543884,641.372559 
	C297.488586,637.028015 290.522278,633.181641 284.019714,628.667236 
	C280.580048,626.279236 277.771393,622.872986 275.085083,619.592896 
	C274.481018,618.855286 275.142944,616.314392 276.034546,615.373474 
	C276.686798,614.685181 279.380615,614.667297 279.953064,615.356567 
	C288.975891,626.221313 303.719238,629.057373 313.213043,639.198792 
	C313.997437,640.036682 315.421478,640.455139 315.867218,641.392395 
	C316.729187,643.204712 317.105164,645.248108 317.682556,647.195740 
	C315.620758,647.062195 313.283234,647.496094 311.562805,646.660095 
	C309.082062,645.454651 307.049469,643.327148 304.543884,641.372559 
z"/>
<path fill="#ab9def" opacity="1.000000" stroke="none" 
	d="
M601.449280,564.336182 
	C602.215332,561.716492 602.440247,559.221191 603.638062,557.347961 
	C604.471863,556.043945 606.641296,555.593872 608.214111,554.762329 
	C608.889282,556.267029 610.487366,558.088074 610.096680,559.227173 
	C606.257812,570.421326 605.094177,581.822510 606.207520,593.574219 
	C606.320251,594.763916 604.377014,596.148376 603.387878,597.442444 
	C602.037415,596.076233 599.486511,594.671814 599.528625,593.349915 
	C599.832642,583.799255 600.661072,574.265381 601.449280,564.336182 
z"/>
<path fill="#242839" opacity="1.000000" stroke="none" 
	d="
M256.983398,746.163757 
	C275.023895,745.677673 293.083771,745.564148 311.591492,745.605469 
	C312.329712,746.679260 312.620026,747.598328 313.062805,749.000000 
	C305.200470,749.000000 297.295624,749.000000 289.390808,749.000000 
	C280.061707,749.000000 270.730072,749.107727 261.406067,748.889648 
	C259.920776,748.854980 258.469635,747.357544 256.983398,746.163757 
z"/>
<path fill="#242839" opacity="1.000000" stroke="none" 
	d="
M298.826355,693.307678 
	C296.389587,695.668762 293.982788,697.623718 291.327209,699.801147 
	C287.814117,698.026794 288.498993,695.587524 290.904083,693.758911 
	C293.177460,692.030518 295.772675,688.896790 298.826355,693.307678 
z"/>
<path fill="#242839" opacity="1.000000" stroke="none" 
	d="
M335.755188,713.383972 
	C333.412415,710.547791 331.190826,707.305664 328.887146,703.748047 
	C329.381958,702.704163 329.958832,701.975830 331.053345,700.593933 
	C331.948792,705.498901 339.036713,706.966919 335.755188,713.383972 
z"/>
<path fill="#242839" opacity="1.000000" stroke="none" 
	d="
M324.926697,744.966553 
	C327.601898,742.706177 330.601227,740.581909 333.850433,738.358826 
	C336.553467,737.871460 337.046448,738.651245 335.982574,740.937317 
	C333.698792,745.845093 329.296387,744.936340 324.926697,744.966553 
z"/>
<path fill="#242839" opacity="1.000000" stroke="none" 
	d="
M326.869995,701.039795 
	C324.403046,699.676941 321.985870,697.843567 319.355072,695.727417 
	C326.847504,694.388000 326.942200,694.450378 326.869995,701.039795 
z"/>
<path fill="#242839" opacity="1.000000" stroke="none" 
	d="
M248.219666,699.694946 
	C247.787949,700.980713 247.233353,701.908813 246.425720,702.948486 
	C244.072037,701.805054 240.294083,701.813293 241.741302,697.927856 
	C244.074966,698.445374 246.085876,698.891296 248.219666,699.694946 
z"/>
<path fill="#242839" opacity="1.000000" stroke="none" 
	d="
M319.059509,695.025269 
	C317.484589,694.903503 316.056549,694.493713 314.308350,693.889526 
	C314.133179,692.610413 314.278198,691.525879 314.545593,689.526306 
	C316.243774,691.887573 321.669159,689.169678 319.059509,695.025269 
z"/>
<path fill="#242839" opacity="1.000000" stroke="none" 
	d="
M244.897125,705.091248 
	C244.905518,706.510071 244.521301,707.904968 243.948547,709.536072 
	C242.976486,709.419495 242.192947,709.066833 241.409424,708.714172 
	C242.441116,707.498596 243.472824,706.283020 244.897125,705.091248 
z"/>
<path fill="#242839" opacity="1.000000" stroke="none" 
	d="
M320.981201,745.774414 
	C321.426025,745.266968 321.868347,745.128418 322.657715,745.048828 
	C322.922882,746.515686 322.841034,747.923462 322.759186,749.331238 
	C322.381958,749.405151 322.004700,749.479004 321.627472,749.552917 
	C321.411224,748.416382 321.194977,747.279846 320.981201,745.774414 
z"/>
<path fill="#242839" opacity="1.000000" stroke="none" 
	d="
M282.956116,704.783203 
	C281.840912,704.888550 280.688385,704.654541 279.267548,704.184631 
	C280.739929,700.675720 281.767151,703.052368 282.956116,704.783203 
z"/>
<path fill="#242839" opacity="1.000000" stroke="none" 
	d="
M308.003021,692.940674 
	C307.191559,693.359741 306.349548,693.456360 305.222229,693.397827 
	C305.438629,692.548706 305.940399,691.854675 306.442139,691.160706 
	C306.952240,691.646545 307.462372,692.132446 308.003021,692.940674 
z"/>
<path fill="#242839" opacity="1.000000" stroke="none" 
	d="
M272.970276,701.717407 
	C272.124084,701.929688 271.280975,701.771912 270.220703,701.369629 
	C270.539368,700.474121 271.075226,699.823059 271.611084,699.172058 
	C272.065186,699.897156 272.519287,700.622314 272.970276,701.717407 
z"/>
<path fill="#242839" opacity="1.000000" stroke="none" 
	d="
M251.053101,745.853516 
	C251.753693,745.557617 252.530380,745.522217 253.667114,745.644653 
	C253.061172,745.906311 252.095200,746.010132 251.053101,745.853516 
z"/>
<path fill="#242839" opacity="1.000000" stroke="none" 
	d="
M247.037323,745.249390 
	C247.471863,744.987793 247.929779,745.014160 248.700119,745.189819 
	C248.636368,745.756348 248.260193,746.173645 247.884003,746.590942 
	C247.609573,746.239746 247.335129,745.888550 247.037323,745.249390 
z"/>
<path fill="#242839" opacity="1.000000" stroke="none" 
	d="
M317.059082,746.003906 
	C317.434204,745.672363 317.890137,745.550964 318.686157,745.549194 
	C318.397461,745.850586 317.768646,746.032349 317.059082,746.003906 
z"/>
<path fill="#242839" opacity="1.000000" stroke="none" 
	d="
M251.884491,697.878723 
	C251.552002,698.404968 251.061737,698.688477 250.284668,698.960571 
	C250.574142,698.511353 251.150436,698.073669 251.884491,697.878723 
z"/>
<path fill="#242839" opacity="1.000000" stroke="none" 
	d="
M328.550049,699.466980 
	C328.583099,699.522583 328.516968,699.411377 328.550049,699.466980 
z"/>
<path fill="#242839" opacity="1.000000" stroke="none" 
	d="
M688.582642,649.070190 
	C688.478577,651.322937 688.382935,653.145630 688.274658,654.967529 
	C688.072937,658.363403 686.095154,660.290222 682.873291,660.323608 
	C670.293518,660.453796 657.711609,660.376770 644.879517,660.376770 
	C644.879517,651.906128 644.802429,644.018433 644.988037,636.136963 
	C645.008667,635.261719 646.539490,633.665771 647.348267,633.679504 
	C658.532715,633.869385 669.870667,631.669006 680.760925,636.487610 
	C686.339783,638.956055 689.321594,642.429688 688.582642,649.070190 
z"/>
</svg>
